<svg width="318" height="54" viewBox="0 0 318 54" fill="none" xmlns="http://www.w3.org/2000/svg">
<g clip-path="url(#clip0_306_2284)">
<mask id="mask0_306_2284" style="mask-type:luminance" maskUnits="userSpaceOnUse" x="0" y="0" width="318" height="54">
<path d="M317.851 0H0V53.77H317.851V0Z" fill="white"/>
</mask>
<g mask="url(#mask0_306_2284)">
<path d="M57.0992 0.941406H0V12.2607H57.0992V0.941406Z" fill="#111111"/>
<path d="M36.1629 3.77344H21.8867V52.8257H36.1629V3.77344Z" fill="#111111"/>
<path d="M76.1326 3.77344H61.8564V52.8257H76.1326V3.77344Z" fill="#111111"/>
<mask id="mask1_306_2284" style="mask-type:luminance" maskUnits="userSpaceOnUse" x="-165" y="-199" width="648" height="453">
<path d="M482.137 -198.426H-164.289V253.727H482.137V-198.426Z" fill="white"/>
</mask>
<g mask="url(#mask1_306_2284)">
<path d="M114.196 18.8648C114.196 9.38505 106.57 1.21786 97.0687 0.964652V0.941406H61.8564V12.2607H94.6991C98.1139 12.2607 100.885 15.4775 100.885 18.8648C100.885 22.637 98.1139 25.4688 94.6991 25.4688H61.8564V34.902H97.0687V34.8839C106.57 34.6256 114.196 28.3523 114.196 18.8648Z" fill="#111111"/>
</g>
<path d="M90.406 33.9609H73.2783L98.0198 52.8274H118.004L90.406 33.9609Z" fill="#111111"/>
<mask id="mask2_306_2284" style="mask-type:luminance" maskUnits="userSpaceOnUse" x="-165" y="-199" width="648" height="453">
<path d="M482.137 -198.426H-164.289V253.727H482.137V-198.426Z" fill="white"/>
</mask>
<g mask="url(#mask2_306_2284)">
<path d="M148.529 41.9832C139.091 41.9832 131.441 35.0071 131.441 26.4188C131.441 17.8304 139.091 10.8569 148.529 10.8569C157.967 10.8569 165.618 17.833 165.618 26.4214C165.618 35.0097 157.967 41.9858 148.529 41.9858M148.529 0.0078125C129.973 0.0078125 118.554 12.0454 118.554 26.8787C118.554 41.7119 129.976 53.765 148.529 53.765C167.083 53.765 178.505 41.7274 178.505 26.8787C178.505 12.0299 167.083 0.0078125 148.529 0.0078125Z" fill="#111111"/>
<path d="M212.691 41.9832C203.253 41.9832 195.603 35.0071 195.603 26.4188C195.603 17.8304 203.253 10.8569 212.691 10.8569C222.13 10.8569 229.78 17.833 229.78 26.4214C229.78 35.0097 222.13 41.9858 212.691 41.9858M212.691 0.0078125C194.135 0.0078125 182.716 12.0454 182.716 26.8787C182.716 41.7119 194.138 53.765 212.691 53.765C231.245 53.765 242.667 41.7274 242.667 26.8787C242.667 12.0299 231.245 0.0078125 212.691 0.0078125Z" fill="#111111"/>
<path d="M270.746 41.5086H261.706V12.266H270.746C280.995 12.266 288.351 16.9839 288.351 26.8873C288.351 36.7907 280.995 41.5086 270.746 41.5086ZM301.435 27.5952C301.435 13.3848 290.256 0.957031 271.223 0.957031H247.43V52.8305H271.223C291.207 52.8305 301.435 41.8083 301.435 27.6055" fill="#111111"/>
<path d="M311.882 53.4651C313.063 53.4651 314.215 53.1183 315.198 52.4688C316.178 51.819 316.942 50.8958 317.395 49.8153C317.846 48.735 317.964 47.546 317.734 46.3991C317.505 45.2519 316.937 44.198 316.102 43.3707C315.268 42.5434 314.207 41.9798 313.05 41.7509C311.893 41.5223 310.694 41.6385 309.602 42.0855C308.512 42.5322 307.582 43.2895 306.925 44.2613C306.268 45.2333 305.916 46.3763 305.916 47.5457C305.916 49.1143 306.544 50.6186 307.662 51.7278C308.783 52.8367 310.3 53.4599 311.882 53.4599" fill="#111111"/>
</g>
</g>
</g>
<defs>
<clipPath id="clip0_306_2284">
<rect width="318" height="54" fill="white"/>
</clipPath>
</defs>
</svg>
